# xmcd
#
# Track frame offsets:
#	151
#	42281
#	76296
#	124176
#	152563
#	182604
#	224632
#	268625
#	310540
#
# Disc length: 4444
#
# Revision: 4
# Processed by: cddbd v1.5.1PL0 Copyright (c) Steve Scherf et al.
# Submitted via: CDex 1.50Beta7
# Normalized: r3:TDELIM( - )
#
DISCID=73115a09
DTITLE=Carl Craig - Designer Music: The Remixes Volume 1
DYEAR=2000
DGENRE=Acid Jazz
TTITLE0=UFO - Planet Plan (Carl Craig Mix)
TTITLE1=Carl Craig vs Johnny Blas - Picadillo (Carl Craig 12" mix)
TTITLE2=Incognito - Out of The Storm (C's Planet E Special Mix)
TTITLE3=Telex - Moskow Disko (Carl Craig remix)
TTITLE4=BT - Moment of Truth (Carl Craig's Urban affair mix)
TTITLE5=Inner City - Buena Vida (Carl Craig Mix)
TTITLE6=Spacetime Continuum - Kairo (Carl Craig Mix #2)
TTITLE7=Alexander Robotnik - Problemz De Amour (Carl Craig mix)
TTITLE8=Ron Trent - Altered States (Carl Craig's East Side Remix)
EXTD=YEAR: 2000
EXTT0=UFO (Carl Craig Mix]\n
EXTT1=Johnny Blas (Carl Craig 12" Mix)
EXTT2=Incognito (C's Planet E Special)
EXTT3=Telex (Carl Craig Remix)
EXTT4=Carl Craig and BT
EXTT5=Carl Craig Mix\n
EXTT6=Carl Craig Mix #2\n
EXTT7=
EXTT8=Carl Craig's East Side Remix
PLAYORDER=
